<?xml version="1.0" encoding="UTF-8" standalone="no"?>
<!DOCTYPE svg PUBLIC "-//W3C//DTD SVG 1.1//EN"
 "http://www.w3.org/Graphics/SVG/1.1/DTD/svg11.dtd">
<!-- Generated by graphviz version 2.40.1 (20161225.0304)
 -->
<!-- Title: cstree Pages: 1 -->
<svg width="1285pt" height="944pt"
 viewBox="0.00 0.00 1285.14 944.00" xmlns="http://www.w3.org/2000/svg" xmlns:xlink="http://www.w3.org/1999/xlink">
<g id="graph0" class="graph" transform="scale(1 1) rotate(0) translate(4 940)">
<title>cstree</title>
<polygon fill="#ffffff" stroke="transparent" points="-4,4 -4,-940 1281.1413,-940 1281.1413,4 -4,4"/>
<!-- terminal -->
<g id="node1" class="node">
<title>terminal</title>
<ellipse fill="none" stroke="#000000" cx="893.4458" cy="-918" rx="40.0939" ry="18"/>
<text text-anchor="middle" x="893.4458" y="-914.3" font-family="Times,serif" font-size="14.00" fill="#000000">terminal</text>
</g>
<!-- c -->
<g id="node2" class="node">
<title>c</title>
<ellipse fill="none" stroke="#000000" cx="495.4458" cy="-738" rx="27" ry="18"/>
<text text-anchor="middle" x="495.4458" y="-734.3" font-family="Times,serif" font-size="14.00" fill="#000000">c</text>
</g>
<!-- terminal&#45;&gt;c -->
<g id="edge1" class="edge">
<title>terminal&#45;&gt;c</title>
<path fill="none" stroke="#000000" d="M864.8226,-905.0548C792.6676,-872.4219 603.6939,-786.9564 527.7408,-752.6058"/>
<polygon fill="#000000" stroke="#000000" points="528.7684,-749.2293 518.2146,-748.2975 525.8838,-755.6073 528.7684,-749.2293"/>
</g>
<!-- package manager -->
<g id="node7" class="node">
<title>package manager</title>
<ellipse fill="none" stroke="#000000" cx="1010.4458" cy="-738" rx="72.5877" ry="18"/>
<text text-anchor="middle" x="1010.4458" y="-734.3" font-family="Times,serif" font-size="14.00" fill="#000000">package manager</text>
</g>
<!-- terminal&#45;&gt;package manager -->
<g id="edge7" class="edge">
<title>terminal&#45;&gt;package manager</title>
<path fill="none" stroke="#000000" d="M904.8773,-900.4131C925.4445,-868.7713 968.7979,-802.0736 993.0624,-764.7436"/>
<polygon fill="#000000" stroke="#000000" points="996.2792,-766.2169 998.7946,-755.9249 990.4101,-762.4019 996.2792,-766.2169"/>
</g>
<!-- html/css -->
<g id="node11" class="node">
<title>html/css</title>
<ellipse fill="none" stroke="#000000" cx="926.4458" cy="-558" rx="40.0939" ry="18"/>
<text text-anchor="middle" x="926.4458" y="-554.3" font-family="Times,serif" font-size="14.00" fill="#000000">html/css</text>
</g>
<!-- terminal&#45;&gt;html/css -->
<g id="edge12" class="edge">
<title>terminal&#45;&gt;html/css</title>
<path fill="none" stroke="#000000" d="M895.1276,-899.6526C900.5121,-840.9129 917.3523,-657.2013 923.8512,-586.3047"/>
<polygon fill="#000000" stroke="#000000" points="927.3398,-586.5882 924.7673,-576.3104 920.369,-585.9492 927.3398,-586.5882"/>
</g>
<!-- virtualization -->
<g id="node3" class="node">
<title>virtualization</title>
<ellipse fill="none" stroke="#000000" cx="181.4458" cy="-558" rx="57.6901" ry="18"/>
<text text-anchor="middle" x="181.4458" y="-554.3" font-family="Times,serif" font-size="14.00" fill="#000000">virtualization</text>
</g>
<!-- c&#45;&gt;virtualization -->
<g id="edge2" class="edge">
<title>c&#45;&gt;virtualization</title>
<path fill="none" stroke="#000000" d="M474.8434,-726.1897C422.5893,-696.2351 284.3434,-616.9859 217.9909,-578.9494"/>
<polygon fill="#000000" stroke="#000000" points="219.5382,-575.8021 209.1219,-573.8653 216.0568,-581.8751 219.5382,-575.8021"/>
</g>
<!-- networking -->
<g id="node4" class="node">
<title>networking</title>
<ellipse fill="none" stroke="#000000" cx="319.4458" cy="-558" rx="50.8918" ry="18"/>
<text text-anchor="middle" x="319.4458" y="-554.3" font-family="Times,serif" font-size="14.00" fill="#000000">networking</text>
</g>
<!-- c&#45;&gt;networking -->
<g id="edge3" class="edge">
<title>c&#45;&gt;networking</title>
<path fill="none" stroke="#000000" d="M480.4401,-722.6533C449.9401,-691.4601 380.4786,-620.4199 343.5582,-582.6604"/>
<polygon fill="#000000" stroke="#000000" points="345.6931,-579.8375 336.1994,-575.1344 340.6881,-584.7314 345.6931,-579.8375"/>
</g>
<!-- concurrency/parallelism -->
<g id="node5" class="node">
<title>concurrency/parallelism</title>
<ellipse fill="none" stroke="#000000" cx="495.4458" cy="-558" rx="96.3833" ry="18"/>
<text text-anchor="middle" x="495.4458" y="-554.3" font-family="Times,serif" font-size="14.00" fill="#000000">concurrency/parallelism</text>
</g>
<!-- c&#45;&gt;concurrency/parallelism -->
<g id="edge4" class="edge">
<title>c&#45;&gt;concurrency/parallelism</title>
<path fill="none" stroke="#000000" d="M495.4458,-719.7501C495.4458,-688.2686 495.4458,-623.5502 495.4458,-586.2249"/>
<polygon fill="#000000" stroke="#000000" points="498.9459,-586.0306 495.4458,-576.0306 491.9459,-586.0306 498.9459,-586.0306"/>
</g>
<!-- cryptography -->
<g id="node12" class="node">
<title>cryptography</title>
<ellipse fill="none" stroke="#000000" cx="799.4458" cy="-558" rx="57.6901" ry="18"/>
<text text-anchor="middle" x="799.4458" y="-554.3" font-family="Times,serif" font-size="14.00" fill="#000000">cryptography</text>
</g>
<!-- c&#45;&gt;cryptography -->
<g id="edge14" class="edge">
<title>c&#45;&gt;cryptography</title>
<path fill="none" stroke="#000000" d="M515.8641,-725.9102C566.6185,-695.8583 699.0247,-617.4599 763.3402,-579.3783"/>
<polygon fill="#000000" stroke="#000000" points="765.4959,-582.1695 772.3175,-574.0628 761.9295,-576.1461 765.4959,-582.1695"/>
</g>
<!-- embedded -->
<g id="node17" class="node">
<title>embedded</title>
<ellipse fill="none" stroke="#000000" cx="47.4458" cy="-558" rx="47.3916" ry="18"/>
<text text-anchor="middle" x="47.4458" y="-554.3" font-family="Times,serif" font-size="14.00" fill="#000000">embedded</text>
</g>
<!-- c&#45;&gt;embedded -->
<g id="edge21" class="edge">
<title>c&#45;&gt;embedded</title>
<path fill="none" stroke="#000000" d="M472.3027,-728.7015C400.6595,-699.9162 181.7996,-611.9814 89.3573,-574.8394"/>
<polygon fill="#000000" stroke="#000000" points="90.6139,-571.5724 80.03,-571.0919 88.0041,-578.0678 90.6139,-571.5724"/>
</g>
<!-- languages -->
<g id="node21" class="node">
<title>languages</title>
<ellipse fill="none" stroke="#000000" cx="666.4458" cy="-558" rx="46.2923" ry="18"/>
<text text-anchor="middle" x="666.4458" y="-554.3" font-family="Times,serif" font-size="14.00" fill="#000000">languages</text>
</g>
<!-- c&#45;&gt;languages -->
<g id="edge26" class="edge">
<title>c&#45;&gt;languages</title>
<path fill="none" stroke="#000000" d="M510.0252,-722.6533C539.6587,-691.4601 607.1469,-620.4199 643.0184,-582.6604"/>
<polygon fill="#000000" stroke="#000000" points="645.8181,-584.795 650.1681,-575.1344 640.7431,-579.9738 645.8181,-584.795"/>
</g>
<!-- cloud -->
<g id="node6" class="node">
<title>cloud</title>
<ellipse fill="none" stroke="#000000" cx="315.4458" cy="-378" rx="30.5947" ry="18"/>
<text text-anchor="middle" x="315.4458" y="-374.3" font-family="Times,serif" font-size="14.00" fill="#000000">cloud</text>
</g>
<!-- virtualization&#45;&gt;cloud -->
<g id="edge6" class="edge">
<title>virtualization&#45;&gt;cloud</title>
<path fill="none" stroke="#000000" d="M194.5383,-540.4131C218.4985,-508.2277 269.4602,-439.7717 296.9492,-402.8462"/>
<polygon fill="#000000" stroke="#000000" points="299.9179,-404.7196 303.0819,-394.6082 294.303,-400.5395 299.9179,-404.7196"/>
</g>
<!-- networking&#45;&gt;cloud -->
<g id="edge5" class="edge">
<title>networking&#45;&gt;cloud</title>
<path fill="none" stroke="#000000" d="M319.0402,-539.7501C318.3406,-508.2686 316.9025,-443.5502 316.073,-406.2249"/>
<polygon fill="#000000" stroke="#000000" points="319.5679,-405.9504 315.8465,-396.0306 312.5696,-406.1059 319.5679,-405.9504"/>
</g>
<!-- server -->
<g id="node8" class="node">
<title>server</title>
<ellipse fill="none" stroke="#000000" cx="480.4458" cy="-378" rx="32.4942" ry="18"/>
<text text-anchor="middle" x="480.4458" y="-374.3" font-family="Times,serif" font-size="14.00" fill="#000000">server</text>
</g>
<!-- networking&#45;&gt;server -->
<g id="edge9" class="edge">
<title>networking&#45;&gt;server</title>
<path fill="none" stroke="#000000" d="M334.8831,-540.7408C363.7857,-508.4274 426.1103,-438.7477 459.0453,-401.926"/>
<polygon fill="#000000" stroke="#000000" points="461.9284,-403.9526 465.9865,-394.1657 456.711,-399.2859 461.9284,-403.9526"/>
</g>
<!-- internet of things -->
<g id="node18" class="node">
<title>internet of things</title>
<ellipse fill="none" stroke="#000000" cx="181.4458" cy="-378" rx="71.4873" ry="18"/>
<text text-anchor="middle" x="181.4458" y="-374.3" font-family="Times,serif" font-size="14.00" fill="#000000">internet of things</text>
</g>
<!-- networking&#45;&gt;internet of things -->
<g id="edge23" class="edge">
<title>networking&#45;&gt;internet of things</title>
<path fill="none" stroke="#000000" d="M305.9625,-540.4131C281.601,-508.6372 230.1351,-441.5078 201.5867,-404.2707"/>
<polygon fill="#000000" stroke="#000000" points="204.0502,-401.7315 195.1882,-395.9249 198.495,-405.9905 204.0502,-401.7315"/>
</g>
<!-- js -->
<g id="node27" class="node">
<title>js</title>
<ellipse fill="none" stroke="#000000" cx="772.4458" cy="-378" rx="27" ry="18"/>
<text text-anchor="middle" x="772.4458" y="-374.3" font-family="Times,serif" font-size="14.00" fill="#000000">js</text>
</g>
<!-- networking&#45;&gt;js -->
<g id="edge33" class="edge">
<title>networking&#45;&gt;js</title>
<path fill="none" stroke="#000000" d="M354.3558,-544.8015C425.5949,-517.7519 592.7093,-453.7044 731.4458,-396 734.4604,-394.7461 737.5895,-393.4192 740.7142,-392.0769"/>
<polygon fill="#000000" stroke="#000000" points="742.1796,-395.2564 749.957,-388.0617 739.3905,-388.836 742.1796,-395.2564"/>
</g>
<!-- concurrency/parallelism&#45;&gt;server -->
<g id="edge8" class="edge">
<title>concurrency/parallelism&#45;&gt;server</title>
<path fill="none" stroke="#000000" d="M493.925,-539.7501C491.3015,-508.2686 485.9083,-443.5502 482.7979,-406.2249"/>
<polygon fill="#000000" stroke="#000000" points="486.2668,-405.7054 481.9483,-396.0306 479.291,-406.2868 486.2668,-405.7054"/>
</g>
<!-- database -->
<g id="node14" class="node">
<title>database</title>
<ellipse fill="none" stroke="#000000" cx="992.4458" cy="-198" rx="40.8928" ry="18"/>
<text text-anchor="middle" x="992.4458" y="-194.3" font-family="Times,serif" font-size="14.00" fill="#000000">database</text>
</g>
<!-- package manager&#45;&gt;database -->
<g id="edge17" class="edge">
<title>package manager&#45;&gt;database</title>
<path fill="none" stroke="#000000" d="M1009.8366,-719.7238C1007.1845,-640.1613 996.6338,-323.6402 993.3958,-226.4993"/>
<polygon fill="#000000" stroke="#000000" points="996.8861,-226.1495 993.0548,-216.2716 989.89,-226.3827 996.8861,-226.1495"/>
</g>
<!-- distributed -->
<g id="node9" class="node">
<title>distributed</title>
<ellipse fill="none" stroke="#000000" cx="480.4458" cy="-198" rx="48.1917" ry="18"/>
<text text-anchor="middle" x="480.4458" y="-194.3" font-family="Times,serif" font-size="14.00" fill="#000000">distributed</text>
</g>
<!-- server&#45;&gt;distributed -->
<g id="edge10" class="edge">
<title>server&#45;&gt;distributed</title>
<path fill="none" stroke="#000000" d="M480.4458,-359.7501C480.4458,-328.2686 480.4458,-263.5502 480.4458,-226.2249"/>
<polygon fill="#000000" stroke="#000000" points="483.9459,-226.0306 480.4458,-216.0306 476.9459,-226.0306 483.9459,-226.0306"/>
</g>
<!-- website -->
<g id="node10" class="node">
<title>website</title>
<ellipse fill="none" stroke="#000000" cx="866.4458" cy="-198" rx="37.8943" ry="18"/>
<text text-anchor="middle" x="866.4458" y="-194.3" font-family="Times,serif" font-size="14.00" fill="#000000">website</text>
</g>
<!-- server&#45;&gt;website -->
<g id="edge11" class="edge">
<title>server&#45;&gt;website</title>
<path fill="none" stroke="#000000" d="M505.4749,-366.3284C571.8017,-335.3988 752.3132,-251.2225 830.0435,-214.9751"/>
<polygon fill="#000000" stroke="#000000" points="831.8523,-217.9936 839.4361,-210.5952 828.8938,-211.6495 831.8523,-217.9936"/>
</g>
<!-- web app -->
<g id="node15" class="node">
<title>web app</title>
<ellipse fill="none" stroke="#000000" cx="866.4458" cy="-18" rx="40.0939" ry="18"/>
<text text-anchor="middle" x="866.4458" y="-14.3" font-family="Times,serif" font-size="14.00" fill="#000000">web app</text>
</g>
<!-- website&#45;&gt;web app -->
<g id="edge19" class="edge">
<title>website&#45;&gt;web app</title>
<path fill="none" stroke="#000000" d="M866.4458,-179.7501C866.4458,-148.2686 866.4458,-83.5502 866.4458,-46.2249"/>
<polygon fill="#000000" stroke="#000000" points="869.9459,-46.0306 866.4458,-36.0306 862.9459,-46.0306 869.9459,-46.0306"/>
</g>
<!-- html/css&#45;&gt;website -->
<g id="edge13" class="edge">
<title>html/css&#45;&gt;website</title>
<path fill="none" stroke="#000000" d="M923.9128,-539.9503C918.9784,-505.1064 907.5825,-426.1703 896.4458,-360 888.5127,-312.8643 878.1533,-258.2364 871.9156,-225.9827"/>
<polygon fill="#000000" stroke="#000000" points="875.3088,-225.0954 869.9677,-215.9454 868.437,-226.4291 875.3088,-225.0954"/>
</g>
<!-- html/css&#45;&gt;js -->
<g id="edge32" class="edge">
<title>html/css&#45;&gt;js</title>
<path fill="none" stroke="#000000" d="M911.9578,-541.066C884.3224,-508.7649 824.032,-438.2956 792.5276,-401.4722"/>
<polygon fill="#000000" stroke="#000000" points="795.0605,-399.0489 785.9,-393.7257 789.7415,-403.5996 795.0605,-399.0489"/>
</g>
<!-- ssl -->
<g id="node13" class="node">
<title>ssl</title>
<ellipse fill="none" stroke="#000000" cx="855.4458" cy="-378" rx="27" ry="18"/>
<text text-anchor="middle" x="855.4458" y="-374.3" font-family="Times,serif" font-size="14.00" fill="#000000">ssl</text>
</g>
<!-- cryptography&#45;&gt;ssl -->
<g id="edge15" class="edge">
<title>cryptography&#45;&gt;ssl</title>
<path fill="none" stroke="#000000" d="M805.02,-540.0828C814.8316,-508.5455 835.2456,-442.9292 846.8659,-405.5782"/>
<polygon fill="#000000" stroke="#000000" points="850.2654,-406.433 849.8941,-395.8447 843.5814,-404.3535 850.2654,-406.433"/>
</g>
<!-- ssl&#45;&gt;website -->
<g id="edge16" class="edge">
<title>ssl&#45;&gt;website</title>
<path fill="none" stroke="#000000" d="M856.5611,-359.7501C858.4849,-328.2686 862.4399,-263.5502 864.7209,-226.2249"/>
<polygon fill="#000000" stroke="#000000" points="868.2273,-226.2255 865.3439,-216.0306 861.2404,-225.7985 868.2273,-226.2255"/>
</g>
<!-- database&#45;&gt;web app -->
<g id="edge18" class="edge">
<title>database&#45;&gt;web app</title>
<path fill="none" stroke="#000000" d="M980.3644,-180.7408C958.0681,-148.889 910.3575,-80.731 884.3126,-43.524"/>
<polygon fill="#000000" stroke="#000000" points="887.0926,-41.3921 878.4906,-35.2069 881.358,-45.4064 887.0926,-41.3921"/>
</g>
<!-- ui -->
<g id="node16" class="node">
<title>ui</title>
<ellipse fill="none" stroke="#000000" cx="772.4458" cy="-198" rx="27" ry="18"/>
<text text-anchor="middle" x="772.4458" y="-194.3" font-family="Times,serif" font-size="14.00" fill="#000000">ui</text>
</g>
<!-- ui&#45;&gt;web app -->
<g id="edge20" class="edge">
<title>ui&#45;&gt;web app</title>
<path fill="none" stroke="#000000" d="M781.4589,-180.7408C797.8679,-149.3193 832.728,-82.5661 852.3203,-45.0489"/>
<polygon fill="#000000" stroke="#000000" points="855.6562,-46.2218 857.1829,-35.7375 849.4513,-42.9814 855.6562,-46.2218"/>
</g>
<!-- embedded&#45;&gt;internet of things -->
<g id="edge22" class="edge">
<title>embedded&#45;&gt;internet of things</title>
<path fill="none" stroke="#000000" d="M60.5383,-540.4131C84.1937,-508.6372 134.1678,-441.5078 161.8887,-404.2707"/>
<polygon fill="#000000" stroke="#000000" points="164.9377,-406.0363 168.1017,-395.9249 159.3227,-401.8563 164.9377,-406.0363"/>
</g>
<!-- asics -->
<g id="node19" class="node">
<title>asics</title>
<ellipse fill="none" stroke="#000000" cx="47.4458" cy="-378" rx="27.8951" ry="18"/>
<text text-anchor="middle" x="47.4458" y="-374.3" font-family="Times,serif" font-size="14.00" fill="#000000">asics</text>
</g>
<!-- embedded&#45;&gt;asics -->
<g id="edge24" class="edge">
<title>embedded&#45;&gt;asics</title>
<path fill="none" stroke="#000000" d="M47.4458,-539.7501C47.4458,-508.2686 47.4458,-443.5502 47.4458,-406.2249"/>
<polygon fill="#000000" stroke="#000000" points="50.9459,-406.0306 47.4458,-396.0306 43.9459,-406.0306 50.9459,-406.0306"/>
</g>
<!-- fpgas -->
<g id="node20" class="node">
<title>fpgas</title>
<ellipse fill="none" stroke="#000000" cx="47.4458" cy="-198" rx="29.795" ry="18"/>
<text text-anchor="middle" x="47.4458" y="-194.3" font-family="Times,serif" font-size="14.00" fill="#000000">fpgas</text>
</g>
<!-- asics&#45;&gt;fpgas -->
<g id="edge25" class="edge">
<title>asics&#45;&gt;fpgas</title>
<path fill="none" stroke="#000000" d="M47.4458,-359.7501C47.4458,-328.2686 47.4458,-263.5502 47.4458,-226.2249"/>
<polygon fill="#000000" stroke="#000000" points="50.9459,-226.0306 47.4458,-216.0306 43.9459,-226.0306 50.9459,-226.0306"/>
</g>
<!-- oop -->
<g id="node22" class="node">
<title>oop</title>
<ellipse fill="none" stroke="#000000" cx="568.4458" cy="-378" rx="27" ry="18"/>
<text text-anchor="middle" x="568.4458" y="-374.3" font-family="Times,serif" font-size="14.00" fill="#000000">oop</text>
</g>
<!-- languages&#45;&gt;oop -->
<g id="edge27" class="edge">
<title>languages&#45;&gt;oop</title>
<path fill="none" stroke="#000000" d="M656.6909,-540.0828C639.3139,-508.1659 602.9333,-441.3444 582.7329,-404.2417"/>
<polygon fill="#000000" stroke="#000000" points="585.5859,-402.1622 577.7302,-395.0531 579.438,-405.5094 585.5859,-402.1622"/>
</g>
<!-- functional -->
<g id="node23" class="node">
<title>functional</title>
<ellipse fill="none" stroke="#000000" cx="670.4458" cy="-378" rx="46.2923" ry="18"/>
<text text-anchor="middle" x="670.4458" y="-374.3" font-family="Times,serif" font-size="14.00" fill="#000000">functional</text>
</g>
<!-- languages&#45;&gt;functional -->
<g id="edge28" class="edge">
<title>languages&#45;&gt;functional</title>
<path fill="none" stroke="#000000" d="M666.8513,-539.7501C667.5509,-508.2686 668.9891,-443.5502 669.8186,-406.2249"/>
<polygon fill="#000000" stroke="#000000" points="673.322,-406.1059 670.0451,-396.0306 666.3237,-405.9504 673.322,-406.1059"/>
</g>
<!-- compilers -->
<g id="node24" class="node">
<title>compilers</title>
<ellipse fill="none" stroke="#000000" cx="1100.4458" cy="-378" rx="46.2923" ry="18"/>
<text text-anchor="middle" x="1100.4458" y="-374.3" font-family="Times,serif" font-size="14.00" fill="#000000">compilers</text>
</g>
<!-- languages&#45;&gt;compilers -->
<g id="edge29" class="edge">
<title>languages&#45;&gt;compilers</title>
<path fill="none" stroke="#000000" d="M698.3588,-544.7642C775.7346,-512.6729 973.2819,-430.7408 1059.3394,-395.0487"/>
<polygon fill="#000000" stroke="#000000" points="1060.883,-398.1977 1068.7792,-391.1336 1058.2013,-391.7317 1060.883,-398.1977"/>
</g>
<!-- semantics -->
<g id="node25" class="node">
<title>semantics</title>
<ellipse fill="none" stroke="#000000" cx="1100.4458" cy="-558" rx="46.2923" ry="18"/>
<text text-anchor="middle" x="1100.4458" y="-554.3" font-family="Times,serif" font-size="14.00" fill="#000000">semantics</text>
</g>
<!-- semantics&#45;&gt;compilers -->
<g id="edge30" class="edge">
<title>semantics&#45;&gt;compilers</title>
<path fill="none" stroke="#000000" d="M1100.4458,-539.7501C1100.4458,-508.2686 1100.4458,-443.5502 1100.4458,-406.2249"/>
<polygon fill="#000000" stroke="#000000" points="1103.9459,-406.0306 1100.4458,-396.0306 1096.9459,-406.0306 1103.9459,-406.0306"/>
</g>
<!-- type theory -->
<g id="node26" class="node">
<title>type theory</title>
<ellipse fill="none" stroke="#000000" cx="1226.4458" cy="-558" rx="50.8918" ry="18"/>
<text text-anchor="middle" x="1226.4458" y="-554.3" font-family="Times,serif" font-size="14.00" fill="#000000">type theory</text>
</g>
<!-- type theory&#45;&gt;compilers -->
<g id="edge31" class="edge">
<title>type theory&#45;&gt;compilers</title>
<path fill="none" stroke="#000000" d="M1214.135,-540.4131C1191.7772,-508.4734 1144.4161,-440.8148 1118.4339,-403.6973"/>
<polygon fill="#000000" stroke="#000000" points="1121.2231,-401.5785 1112.6211,-395.3933 1115.4884,-405.5927 1121.2231,-401.5785"/>
</g>
<!-- js&#45;&gt;ui -->
<g id="edge34" class="edge">
<title>js&#45;&gt;ui</title>
<path fill="none" stroke="#000000" d="M772.4458,-359.7501C772.4458,-328.2686 772.4458,-263.5502 772.4458,-226.2249"/>
<polygon fill="#000000" stroke="#000000" points="775.9459,-226.0306 772.4458,-216.0306 768.9459,-226.0306 775.9459,-226.0306"/>
</g>
</g>
</svg>
