<?xml version="1.0" encoding="UTF-8" standalone="no"?>
<!DOCTYPE svg PUBLIC "-//W3C//DTD SVG 1.1//EN"
 "http://www.w3.org/Graphics/SVG/1.1/DTD/svg11.dtd">
<!-- Generated by graphviz version 2.40.1 (20161225.0304)
 -->
<!-- Title: cstree Pages: 1 -->
<svg width="1311pt" height="944pt"
 viewBox="0.00 0.00 1310.64 944.00" xmlns="http://www.w3.org/2000/svg" xmlns:xlink="http://www.w3.org/1999/xlink">
<g id="graph0" class="graph" transform="scale(1 1) rotate(0) translate(4 940)">
<title>cstree</title>
<polygon fill="#ffffff" stroke="transparent" points="-4,4 -4,-940 1306.6419,-940 1306.6419,4 -4,4"/>
<!-- terminal -->
<g id="node1" class="node">
<title>terminal</title>
<ellipse fill="none" stroke="#000000" cx="491.9464" cy="-918" rx="40.0939" ry="18"/>
<text text-anchor="middle" x="491.9464" y="-914.3" font-family="Times,serif" font-size="14.00" fill="#000000">terminal</text>
</g>
<!-- c -->
<g id="node2" class="node">
<title>c</title>
<ellipse fill="none" stroke="#000000" cx="491.9464" cy="-738" rx="27" ry="18"/>
<text text-anchor="middle" x="491.9464" y="-734.3" font-family="Times,serif" font-size="14.00" fill="#000000">c</text>
</g>
<!-- terminal&#45;&gt;c -->
<g id="edge1" class="edge">
<title>terminal&#45;&gt;c</title>
<path fill="none" stroke="#000000" d="M491.9464,-899.7501C491.9464,-868.2686 491.9464,-803.5502 491.9464,-766.2249"/>
<polygon fill="#000000" stroke="#000000" points="495.4465,-766.0306 491.9464,-756.0306 488.4465,-766.0306 495.4465,-766.0306"/>
</g>
<!-- package manager -->
<g id="node7" class="node">
<title>package manager</title>
<ellipse fill="none" stroke="#000000" cx="245.9464" cy="-738" rx="72.5877" ry="18"/>
<text text-anchor="middle" x="245.9464" y="-734.3" font-family="Times,serif" font-size="14.00" fill="#000000">package manager</text>
</g>
<!-- terminal&#45;&gt;package manager -->
<g id="edge7" class="edge">
<title>terminal&#45;&gt;package manager</title>
<path fill="none" stroke="#000000" d="M470.5458,-902.3411C427.1184,-870.5649 328.462,-798.3773 277.5894,-761.1535"/>
<polygon fill="#000000" stroke="#000000" points="279.3972,-758.1393 269.26,-755.0588 275.2636,-763.7885 279.3972,-758.1393"/>
</g>
<!-- html/css -->
<g id="node11" class="node">
<title>html/css</title>
<ellipse fill="none" stroke="#000000" cx="1010.9464" cy="-558" rx="40.0939" ry="18"/>
<text text-anchor="middle" x="1010.9464" y="-554.3" font-family="Times,serif" font-size="14.00" fill="#000000">html/css</text>
</g>
<!-- terminal&#45;&gt;html/css -->
<g id="edge12" class="edge">
<title>terminal&#45;&gt;html/css</title>
<path fill="none" stroke="#000000" d="M513.9157,-902.7612C596.1445,-845.7238 885.8741,-644.7554 980.6751,-578.9974"/>
<polygon fill="#000000" stroke="#000000" points="982.7496,-581.818 988.9716,-573.2426 978.7599,-576.0663 982.7496,-581.818"/>
</g>
<!-- virtualization -->
<g id="node3" class="node">
<title>virtualization</title>
<ellipse fill="none" stroke="#000000" cx="265.9464" cy="-558" rx="57.6901" ry="18"/>
<text text-anchor="middle" x="265.9464" y="-554.3" font-family="Times,serif" font-size="14.00" fill="#000000">virtualization</text>
</g>
<!-- c&#45;&gt;virtualization -->
<g id="edge2" class="edge">
<title>c&#45;&gt;virtualization</title>
<path fill="none" stroke="#000000" d="M474.5878,-724.1746C436.0728,-693.4989 343.1073,-619.4556 295.3484,-581.4176"/>
<polygon fill="#000000" stroke="#000000" points="297.2591,-578.4649 287.2564,-574.9726 292.898,-583.9404 297.2591,-578.4649"/>
</g>
<!-- networking -->
<g id="node4" class="node">
<title>networking</title>
<ellipse fill="none" stroke="#000000" cx="403.9464" cy="-558" rx="50.8918" ry="18"/>
<text text-anchor="middle" x="403.9464" y="-554.3" font-family="Times,serif" font-size="14.00" fill="#000000">networking</text>
</g>
<!-- c&#45;&gt;networking -->
<g id="edge3" class="edge">
<title>c&#45;&gt;networking</title>
<path fill="none" stroke="#000000" d="M483.5086,-720.7408C468.1469,-689.3193 435.512,-622.5661 417.1703,-585.0489"/>
<polygon fill="#000000" stroke="#000000" points="420.1545,-583.1841 412.618,-575.7375 413.8659,-586.2586 420.1545,-583.1841"/>
</g>
<!-- concurrency/parallelism -->
<g id="node5" class="node">
<title>concurrency/parallelism</title>
<ellipse fill="none" stroke="#000000" cx="579.9464" cy="-558" rx="96.3833" ry="18"/>
<text text-anchor="middle" x="579.9464" y="-554.3" font-family="Times,serif" font-size="14.00" fill="#000000">concurrency/parallelism</text>
</g>
<!-- c&#45;&gt;concurrency/parallelism -->
<g id="edge4" class="edge">
<title>c&#45;&gt;concurrency/parallelism</title>
<path fill="none" stroke="#000000" d="M500.3842,-720.7408C515.7063,-689.4001 548.2131,-622.909 566.5807,-585.3388"/>
<polygon fill="#000000" stroke="#000000" points="569.896,-586.5264 571.1438,-576.0053 563.6073,-583.4519 569.896,-586.5264"/>
</g>
<!-- cryptography -->
<g id="node12" class="node">
<title>cryptography</title>
<ellipse fill="none" stroke="#000000" cx="883.9464" cy="-558" rx="57.6901" ry="18"/>
<text text-anchor="middle" x="883.9464" y="-554.3" font-family="Times,serif" font-size="14.00" fill="#000000">cryptography</text>
</g>
<!-- c&#45;&gt;cryptography -->
<g id="edge14" class="edge">
<title>c&#45;&gt;cryptography</title>
<path fill="none" stroke="#000000" d="M514.4299,-727.6759C577.9646,-698.5018 759.565,-615.1139 842.1522,-577.1912"/>
<polygon fill="#000000" stroke="#000000" points="843.8557,-580.2604 851.4829,-572.9067 840.9347,-573.899 843.8557,-580.2604"/>
</g>
<!-- embedded -->
<g id="node17" class="node">
<title>embedded</title>
<ellipse fill="none" stroke="#000000" cx="131.9464" cy="-558" rx="47.3916" ry="18"/>
<text text-anchor="middle" x="131.9464" y="-554.3" font-family="Times,serif" font-size="14.00" fill="#000000">embedded</text>
</g>
<!-- c&#45;&gt;embedded -->
<g id="edge21" class="edge">
<title>c&#45;&gt;embedded</title>
<path fill="none" stroke="#000000" d="M470.2375,-727.1456C410.8316,-697.4426 245.0355,-614.5445 169.862,-576.9578"/>
<polygon fill="#000000" stroke="#000000" points="171.2388,-573.7331 160.7292,-572.3914 168.1083,-579.9941 171.2388,-573.7331"/>
</g>
<!-- languages -->
<g id="node21" class="node">
<title>languages</title>
<ellipse fill="none" stroke="#000000" cx="750.9464" cy="-558" rx="46.2923" ry="18"/>
<text text-anchor="middle" x="750.9464" y="-554.3" font-family="Times,serif" font-size="14.00" fill="#000000">languages</text>
</g>
<!-- c&#45;&gt;languages -->
<g id="edge26" class="edge">
<title>c&#45;&gt;languages</title>
<path fill="none" stroke="#000000" d="M510.9913,-724.7642C555.2558,-694.0011 665.4219,-617.4378 719.7059,-579.7115"/>
<polygon fill="#000000" stroke="#000000" points="722.0171,-582.3676 728.2313,-573.7865 718.0222,-576.6194 722.0171,-582.3676"/>
</g>
<!-- cloud -->
<g id="node6" class="node">
<title>cloud</title>
<ellipse fill="none" stroke="#000000" cx="371.9464" cy="-378" rx="30.5947" ry="18"/>
<text text-anchor="middle" x="371.9464" y="-374.3" font-family="Times,serif" font-size="14.00" fill="#000000">cloud</text>
</g>
<!-- virtualization&#45;&gt;cloud -->
<g id="edge6" class="edge">
<title>virtualization&#45;&gt;cloud</title>
<path fill="none" stroke="#000000" d="M276.4976,-540.0828C295.3731,-508.0301 334.9788,-440.7751 356.7709,-403.7697"/>
<polygon fill="#000000" stroke="#000000" points="359.8455,-405.446 361.904,-395.0531 353.8137,-401.8939 359.8455,-405.446"/>
</g>
<!-- networking&#45;&gt;cloud -->
<g id="edge5" class="edge">
<title>networking&#45;&gt;cloud</title>
<path fill="none" stroke="#000000" d="M400.7019,-539.7501C395.1052,-508.2686 383.5997,-443.5502 376.9641,-406.2249"/>
<polygon fill="#000000" stroke="#000000" points="380.3482,-405.2636 375.1518,-396.0306 373.4563,-406.4889 380.3482,-405.2636"/>
</g>
<!-- server -->
<g id="node8" class="node">
<title>server</title>
<ellipse fill="none" stroke="#000000" cx="463.9464" cy="-378" rx="32.4942" ry="18"/>
<text text-anchor="middle" x="463.9464" y="-374.3" font-family="Times,serif" font-size="14.00" fill="#000000">server</text>
</g>
<!-- networking&#45;&gt;server -->
<g id="edge9" class="edge">
<title>networking&#45;&gt;server</title>
<path fill="none" stroke="#000000" d="M409.9188,-540.0828C420.4312,-508.5455 442.3033,-442.9292 454.7536,-405.5782"/>
<polygon fill="#000000" stroke="#000000" points="458.1562,-406.4384 457.9981,-395.8447 451.5154,-404.2247 458.1562,-406.4384"/>
</g>
<!-- internet of things -->
<g id="node18" class="node">
<title>internet of things</title>
<ellipse fill="none" stroke="#000000" cx="240.9464" cy="-378" rx="71.4873" ry="18"/>
<text text-anchor="middle" x="240.9464" y="-374.3" font-family="Times,serif" font-size="14.00" fill="#000000">internet of things</text>
</g>
<!-- networking&#45;&gt;internet of things -->
<g id="edge23" class="edge">
<title>networking&#45;&gt;internet of things</title>
<path fill="none" stroke="#000000" d="M388.3172,-540.7408C359.379,-508.7845 297.3474,-440.2834 263.7291,-403.1588"/>
<polygon fill="#000000" stroke="#000000" points="266.3154,-400.8006 257.0087,-395.7375 261.1267,-405.4993 266.3154,-400.8006"/>
</g>
<!-- js -->
<g id="node28" class="node">
<title>js</title>
<ellipse fill="none" stroke="#000000" cx="881.9464" cy="-378" rx="27" ry="18"/>
<text text-anchor="middle" x="881.9464" y="-374.3" font-family="Times,serif" font-size="14.00" fill="#000000">js</text>
</g>
<!-- networking&#45;&gt;js -->
<g id="edge34" class="edge">
<title>networking&#45;&gt;js</title>
<path fill="none" stroke="#000000" d="M440.1932,-545.3749C515.415,-518.9968 693.7387,-455.5398 840.9464,-396 843.9732,-394.7758 847.1104,-393.4688 850.2403,-392.1391"/>
<polygon fill="#000000" stroke="#000000" points="851.6991,-395.3215 859.4905,-388.142 848.9225,-388.8958 851.6991,-395.3215"/>
</g>
<!-- concurrency/parallelism&#45;&gt;server -->
<g id="edge8" class="edge">
<title>concurrency/parallelism&#45;&gt;server</title>
<path fill="none" stroke="#000000" d="M568.3998,-540.0828C547.7435,-508.0301 504.4014,-440.7751 480.5535,-403.7697"/>
<polygon fill="#000000" stroke="#000000" points="483.2952,-401.5628 474.9361,-395.0531 477.4112,-405.3548 483.2952,-401.5628"/>
</g>
<!-- database -->
<g id="node14" class="node">
<title>database</title>
<ellipse fill="none" stroke="#000000" cx="40.9464" cy="-198" rx="40.8928" ry="18"/>
<text text-anchor="middle" x="40.9464" y="-194.3" font-family="Times,serif" font-size="14.00" fill="#000000">database</text>
</g>
<!-- package manager&#45;&gt;database -->
<g id="edge17" class="edge">
<title>package manager&#45;&gt;database</title>
<path fill="none" stroke="#000000" d="M217.2482,-721.4266C176.3308,-696.0233 102.5742,-643.2556 69.9464,-576 12.1183,-456.7993 27.3012,-291.3468 36.431,-226.0773"/>
<polygon fill="#000000" stroke="#000000" points="39.9013,-226.5347 37.8859,-216.1334 32.975,-225.5213 39.9013,-226.5347"/>
</g>
<!-- distributed -->
<g id="node9" class="node">
<title>distributed</title>
<ellipse fill="none" stroke="#000000" cx="463.9464" cy="-198" rx="48.1917" ry="18"/>
<text text-anchor="middle" x="463.9464" y="-194.3" font-family="Times,serif" font-size="14.00" fill="#000000">distributed</text>
</g>
<!-- server&#45;&gt;distributed -->
<g id="edge10" class="edge">
<title>server&#45;&gt;distributed</title>
<path fill="none" stroke="#000000" d="M463.9464,-359.7501C463.9464,-328.2686 463.9464,-263.5502 463.9464,-226.2249"/>
<polygon fill="#000000" stroke="#000000" points="467.4465,-226.0306 463.9464,-216.0306 460.4465,-226.0306 467.4465,-226.0306"/>
</g>
<!-- website -->
<g id="node10" class="node">
<title>website</title>
<ellipse fill="none" stroke="#000000" cx="964.9464" cy="-198" rx="37.8943" ry="18"/>
<text text-anchor="middle" x="964.9464" y="-194.3" font-family="Times,serif" font-size="14.00" fill="#000000">website</text>
</g>
<!-- server&#45;&gt;website -->
<g id="edge11" class="edge">
<title>server&#45;&gt;website</title>
<path fill="none" stroke="#000000" d="M490.7491,-367.613C497.3419,-365.0919 504.3903,-362.4248 510.9464,-360 663.1828,-303.6957 845.3409,-239.7178 924.6958,-212.0132"/>
<polygon fill="#000000" stroke="#000000" points="926.0146,-215.2601 934.3033,-208.661 923.7085,-208.6509 926.0146,-215.2601"/>
</g>
<!-- web app -->
<g id="node15" class="node">
<title>web app</title>
<ellipse fill="none" stroke="#000000" cx="870.9464" cy="-18" rx="40.0939" ry="18"/>
<text text-anchor="middle" x="870.9464" y="-14.3" font-family="Times,serif" font-size="14.00" fill="#000000">web app</text>
</g>
<!-- website&#45;&gt;web app -->
<g id="edge19" class="edge">
<title>website&#45;&gt;web app</title>
<path fill="none" stroke="#000000" d="M955.7621,-180.4131C939.2656,-148.8241 904.5234,-82.2964 885.0103,-44.931"/>
<polygon fill="#000000" stroke="#000000" points="887.8994,-42.9022 880.1679,-35.6583 881.6946,-46.1426 887.8994,-42.9022"/>
</g>
<!-- html/css&#45;&gt;website -->
<g id="edge13" class="edge">
<title>html/css&#45;&gt;website</title>
<path fill="none" stroke="#000000" d="M1011.8285,-539.8734C1013.2351,-504.898 1014.9813,-425.747 1005.9464,-360 999.353,-312.0205 983.9248,-257.7297 973.9874,-225.7602"/>
<polygon fill="#000000" stroke="#000000" points="977.3183,-224.6849 970.972,-216.201 970.6425,-226.7908 977.3183,-224.6849"/>
</g>
<!-- html/css&#45;&gt;js -->
<g id="edge33" class="edge">
<title>html/css&#45;&gt;js</title>
<path fill="none" stroke="#000000" d="M998.5773,-540.7408C975.575,-508.6446 926.1525,-439.6829 899.6287,-402.6731"/>
<polygon fill="#000000" stroke="#000000" points="902.3866,-400.5128 893.7165,-394.4235 896.6969,-404.5905 902.3866,-400.5128"/>
</g>
<!-- ssl -->
<g id="node13" class="node">
<title>ssl</title>
<ellipse fill="none" stroke="#000000" cx="964.9464" cy="-378" rx="27" ry="18"/>
<text text-anchor="middle" x="964.9464" y="-374.3" font-family="Times,serif" font-size="14.00" fill="#000000">ssl</text>
</g>
<!-- cryptography&#45;&gt;ssl -->
<g id="edge15" class="edge">
<title>cryptography&#45;&gt;ssl</title>
<path fill="none" stroke="#000000" d="M892.0091,-540.0828C906.335,-508.2475 936.2877,-441.686 953.0092,-404.5269"/>
<polygon fill="#000000" stroke="#000000" points="956.2425,-405.8708 957.1545,-395.3153 949.859,-402.9982 956.2425,-405.8708"/>
</g>
<!-- ssl&#45;&gt;website -->
<g id="edge16" class="edge">
<title>ssl&#45;&gt;website</title>
<path fill="none" stroke="#000000" d="M964.9464,-359.7501C964.9464,-328.2686 964.9464,-263.5502 964.9464,-226.2249"/>
<polygon fill="#000000" stroke="#000000" points="968.4465,-226.0306 964.9464,-216.0306 961.4465,-226.0306 968.4465,-226.0306"/>
</g>
<!-- database&#45;&gt;web app -->
<g id="edge18" class="edge">
<title>database&#45;&gt;web app</title>
<path fill="none" stroke="#000000" d="M73.3496,-186.9499C81.0392,-184.5044 89.2459,-182.0375 96.9464,-180 368.7317,-108.0887 700.9703,-47.5638 823.0345,-26.2237"/>
<polygon fill="#000000" stroke="#000000" points="823.9145,-29.6231 833.1651,-24.4583 822.7127,-22.7271 823.9145,-29.6231"/>
</g>
<!-- ui -->
<g id="node16" class="node">
<title>ui</title>
<ellipse fill="none" stroke="#000000" cx="870.9464" cy="-198" rx="27" ry="18"/>
<text text-anchor="middle" x="870.9464" y="-194.3" font-family="Times,serif" font-size="14.00" fill="#000000">ui</text>
</g>
<!-- ui&#45;&gt;web app -->
<g id="edge20" class="edge">
<title>ui&#45;&gt;web app</title>
<path fill="none" stroke="#000000" d="M870.9464,-179.7501C870.9464,-148.2686 870.9464,-83.5502 870.9464,-46.2249"/>
<polygon fill="#000000" stroke="#000000" points="874.4465,-46.0306 870.9464,-36.0306 867.4465,-46.0306 874.4465,-46.0306"/>
</g>
<!-- embedded&#45;&gt;internet of things -->
<g id="edge22" class="edge">
<title>embedded&#45;&gt;internet of things</title>
<path fill="none" stroke="#000000" d="M142.5962,-540.4131C161.7571,-508.7713 202.1462,-442.0736 224.7516,-404.7436"/>
<polygon fill="#000000" stroke="#000000" points="227.9058,-406.2918 230.0918,-395.9249 221.9181,-402.6659 227.9058,-406.2918"/>
</g>
<!-- asics -->
<g id="node19" class="node">
<title>asics</title>
<ellipse fill="none" stroke="#000000" cx="112.9464" cy="-378" rx="27.8951" ry="18"/>
<text text-anchor="middle" x="112.9464" y="-374.3" font-family="Times,serif" font-size="14.00" fill="#000000">asics</text>
</g>
<!-- embedded&#45;&gt;asics -->
<g id="edge24" class="edge">
<title>embedded&#45;&gt;asics</title>
<path fill="none" stroke="#000000" d="M130.02,-539.7501C126.6969,-508.2686 119.8656,-443.5502 115.9257,-406.2249"/>
<polygon fill="#000000" stroke="#000000" points="119.3801,-405.6079 114.8496,-396.0306 112.4187,-406.3428 119.3801,-405.6079"/>
</g>
<!-- fpgas -->
<g id="node20" class="node">
<title>fpgas</title>
<ellipse fill="none" stroke="#000000" cx="140.9464" cy="-198" rx="29.795" ry="18"/>
<text text-anchor="middle" x="140.9464" y="-194.3" font-family="Times,serif" font-size="14.00" fill="#000000">fpgas</text>
</g>
<!-- asics&#45;&gt;fpgas -->
<g id="edge25" class="edge">
<title>asics&#45;&gt;fpgas</title>
<path fill="none" stroke="#000000" d="M115.7335,-360.0828C120.6057,-328.7612 130.7069,-263.8252 136.5366,-226.3486"/>
<polygon fill="#000000" stroke="#000000" points="140.0502,-226.531 138.129,-216.1118 133.1334,-225.455 140.0502,-226.531"/>
</g>
<!-- exceptions -->
<g id="node22" class="node">
<title>exceptions</title>
<ellipse fill="none" stroke="#000000" cx="573.9464" cy="-378" rx="48.1917" ry="18"/>
<text text-anchor="middle" x="573.9464" y="-374.3" font-family="Times,serif" font-size="14.00" fill="#000000">exceptions</text>
</g>
<!-- languages&#45;&gt;exceptions -->
<g id="edge27" class="edge">
<title>languages&#45;&gt;exceptions</title>
<path fill="none" stroke="#000000" d="M734.2946,-541.066C702.8001,-509.0377 634.4048,-439.4832 597.9519,-402.4124"/>
<polygon fill="#000000" stroke="#000000" points="600.1898,-399.6964 590.6828,-395.0201 595.1986,-404.6044 600.1898,-399.6964"/>
</g>
<!-- oop -->
<g id="node23" class="node">
<title>oop</title>
<ellipse fill="none" stroke="#000000" cx="677.9464" cy="-378" rx="27" ry="18"/>
<text text-anchor="middle" x="677.9464" y="-374.3" font-family="Times,serif" font-size="14.00" fill="#000000">oop</text>
</g>
<!-- languages&#45;&gt;oop -->
<g id="edge28" class="edge">
<title>languages&#45;&gt;oop</title>
<path fill="none" stroke="#000000" d="M743.68,-540.0828C730.8569,-508.4642 704.1415,-442.5908 689.014,-405.29"/>
<polygon fill="#000000" stroke="#000000" points="692.0774,-403.5307 685.0757,-395.5792 685.5906,-406.1615 692.0774,-403.5307"/>
</g>
<!-- functional -->
<g id="node24" class="node">
<title>functional</title>
<ellipse fill="none" stroke="#000000" cx="779.9464" cy="-378" rx="46.2923" ry="18"/>
<text text-anchor="middle" x="779.9464" y="-374.3" font-family="Times,serif" font-size="14.00" fill="#000000">functional</text>
</g>
<!-- languages&#45;&gt;functional -->
<g id="edge29" class="edge">
<title>languages&#45;&gt;functional</title>
<path fill="none" stroke="#000000" d="M753.8866,-539.7501C758.9586,-508.2686 769.3855,-443.5502 775.399,-406.2249"/>
<polygon fill="#000000" stroke="#000000" points="778.9062,-406.46 777.0414,-396.0306 771.9953,-405.3466 778.9062,-406.46"/>
</g>
<!-- compilers -->
<g id="node25" class="node">
<title>compilers</title>
<ellipse fill="none" stroke="#000000" cx="1125.9464" cy="-378" rx="46.2923" ry="18"/>
<text text-anchor="middle" x="1125.9464" y="-374.3" font-family="Times,serif" font-size="14.00" fill="#000000">compilers</text>
</g>
<!-- languages&#45;&gt;compilers -->
<g id="edge30" class="edge">
<title>languages&#45;&gt;compilers</title>
<path fill="none" stroke="#000000" d="M780.0599,-544.0255C847.0611,-511.8649 1012.1788,-432.6085 1087.4434,-396.4814"/>
<polygon fill="#000000" stroke="#000000" points="1089.0921,-399.5724 1096.5928,-392.0897 1086.063,-393.2618 1089.0921,-399.5724"/>
</g>
<!-- semantics -->
<g id="node26" class="node">
<title>semantics</title>
<ellipse fill="none" stroke="#000000" cx="1125.9464" cy="-558" rx="46.2923" ry="18"/>
<text text-anchor="middle" x="1125.9464" y="-554.3" font-family="Times,serif" font-size="14.00" fill="#000000">semantics</text>
</g>
<!-- semantics&#45;&gt;compilers -->
<g id="edge31" class="edge">
<title>semantics&#45;&gt;compilers</title>
<path fill="none" stroke="#000000" d="M1125.9464,-539.7501C1125.9464,-508.2686 1125.9464,-443.5502 1125.9464,-406.2249"/>
<polygon fill="#000000" stroke="#000000" points="1129.4465,-406.0306 1125.9464,-396.0306 1122.4465,-406.0306 1129.4465,-406.0306"/>
</g>
<!-- type theory -->
<g id="node27" class="node">
<title>type theory</title>
<ellipse fill="none" stroke="#000000" cx="1251.9464" cy="-558" rx="50.8918" ry="18"/>
<text text-anchor="middle" x="1251.9464" y="-554.3" font-family="Times,serif" font-size="14.00" fill="#000000">type theory</text>
</g>
<!-- type theory&#45;&gt;compilers -->
<g id="edge32" class="edge">
<title>type theory&#45;&gt;compilers</title>
<path fill="none" stroke="#000000" d="M1239.6355,-540.4131C1217.2777,-508.4734 1169.9167,-440.8148 1143.9344,-403.6973"/>
<polygon fill="#000000" stroke="#000000" points="1146.7236,-401.5785 1138.1217,-395.3933 1140.989,-405.5927 1146.7236,-401.5785"/>
</g>
<!-- js&#45;&gt;ui -->
<g id="edge35" class="edge">
<title>js&#45;&gt;ui</title>
<path fill="none" stroke="#000000" d="M880.8311,-359.7501C878.9072,-328.2686 874.9522,-263.5502 872.6712,-226.2249"/>
<polygon fill="#000000" stroke="#000000" points="876.1518,-225.7985 872.0482,-216.0306 869.1648,-226.2255 876.1518,-225.7985"/>
</g>
</g>
</svg>
