<?xml version="1.0" encoding="UTF-8" standalone="no"?>
<!DOCTYPE svg PUBLIC "-//W3C//DTD SVG 1.1//EN"
 "http://www.w3.org/Graphics/SVG/1.1/DTD/svg11.dtd">
<!-- Generated by graphviz version 2.40.1 (20161225.0304)
 -->
<!-- Title: cstree Pages: 1 -->
<svg width="1374pt" height="1124pt"
 viewBox="0.00 0.00 1373.59 1124.00" xmlns="http://www.w3.org/2000/svg" xmlns:xlink="http://www.w3.org/1999/xlink">
<g id="graph0" class="graph" transform="scale(1 1) rotate(0) translate(4 1120)">
<title>cstree</title>
<polygon fill="#ffffff" stroke="transparent" points="-4,4 -4,-1120 1369.5917,-1120 1369.5917,4 -4,4"/>
<!-- terminal -->
<g id="node1" class="node">
<title>terminal</title>
<ellipse fill="none" stroke="#000000" cx="358.4469" cy="-1098" rx="40.0939" ry="18"/>
<text text-anchor="middle" x="358.4469" y="-1094.3" font-family="Times,serif" font-size="14.00" fill="#000000">terminal</text>
</g>
<!-- editors -->
<g id="node2" class="node">
<title>editors</title>
<ellipse fill="none" stroke="#000000" cx="34.4469" cy="-918" rx="34.394" ry="18"/>
<text text-anchor="middle" x="34.4469" y="-914.3" font-family="Times,serif" font-size="14.00" fill="#000000">editors</text>
</g>
<!-- terminal&#45;&gt;editors -->
<g id="edge1" class="edge">
<title>terminal&#45;&gt;editors</title>
<path fill="none" stroke="#000000" d="M333.0232,-1083.8757C274.8688,-1051.5677 132.184,-972.2984 67.4013,-936.3079"/>
<polygon fill="#000000" stroke="#000000" points="68.8691,-933.1196 58.4277,-931.3227 65.4695,-939.2387 68.8691,-933.1196"/>
</g>
<!-- filesystem -->
<g id="node3" class="node">
<title>filesystem</title>
<ellipse fill="none" stroke="#000000" cx="145.4469" cy="-918" rx="47.3916" ry="18"/>
<text text-anchor="middle" x="145.4469" y="-914.3" font-family="Times,serif" font-size="14.00" fill="#000000">filesystem</text>
</g>
<!-- terminal&#45;&gt;filesystem -->
<g id="edge2" class="edge">
<title>terminal&#45;&gt;filesystem</title>
<path fill="none" stroke="#000000" d="M339.5446,-1082.0262C301.6843,-1050.0316 216.4352,-977.99 172.603,-940.9488"/>
<polygon fill="#000000" stroke="#000000" points="174.8184,-938.2386 164.9213,-934.4572 170.3002,-943.5851 174.8184,-938.2386"/>
</g>
<!-- package manager -->
<g id="node5" class="node">
<title>package manager</title>
<ellipse fill="none" stroke="#000000" cx="294.4469" cy="-918" rx="72.5877" ry="18"/>
<text text-anchor="middle" x="294.4469" y="-914.3" font-family="Times,serif" font-size="14.00" fill="#000000">package manager</text>
</g>
<!-- terminal&#45;&gt;package manager -->
<g id="edge13" class="edge">
<title>terminal&#45;&gt;package manager</title>
<path fill="none" stroke="#000000" d="M352.0764,-1080.0828C340.892,-1048.6268 317.6531,-983.2672 304.3554,-945.8676"/>
<polygon fill="#000000" stroke="#000000" points="307.5346,-944.3614 300.8867,-936.1118 300.9391,-946.7065 307.5346,-944.3614"/>
</g>
<!-- git -->
<g id="node6" class="node">
<title>git</title>
<ellipse fill="none" stroke="#000000" cx="423.4469" cy="-918" rx="27" ry="18"/>
<text text-anchor="middle" x="423.4469" y="-914.3" font-family="Times,serif" font-size="14.00" fill="#000000">git</text>
</g>
<!-- terminal&#45;&gt;git -->
<g id="edge5" class="edge">
<title>terminal&#45;&gt;git</title>
<path fill="none" stroke="#000000" d="M364.917,-1080.0828C376.3349,-1048.4642 400.1225,-982.5908 413.5922,-945.29"/>
<polygon fill="#000000" stroke="#000000" points="416.9943,-946.1735 417.0989,-935.5792 410.4105,-943.7959 416.9943,-946.1735"/>
</g>
<!-- c -->
<g id="node9" class="node">
<title>c</title>
<ellipse fill="none" stroke="#000000" cx="733.4469" cy="-918" rx="27" ry="18"/>
<text text-anchor="middle" x="733.4469" y="-914.3" font-family="Times,serif" font-size="14.00" fill="#000000">c</text>
</g>
<!-- terminal&#45;&gt;c -->
<g id="edge8" class="edge">
<title>terminal&#45;&gt;c</title>
<path fill="none" stroke="#000000" d="M386.0216,-1084.7642C454.1713,-1052.0523 630.2107,-967.5534 702.133,-933.0307"/>
<polygon fill="#000000" stroke="#000000" points="703.671,-936.1748 711.1716,-928.6921 700.6418,-929.8642 703.671,-936.1748"/>
</g>
<!-- html/css -->
<g id="node18" class="node">
<title>html/css</title>
<ellipse fill="none" stroke="#000000" cx="475.4469" cy="-558" rx="40.0939" ry="18"/>
<text text-anchor="middle" x="475.4469" y="-554.3" font-family="Times,serif" font-size="14.00" fill="#000000">html/css</text>
</g>
<!-- terminal&#45;&gt;html/css -->
<g id="edge18" class="edge">
<title>terminal&#45;&gt;html/css</title>
<path fill="none" stroke="#000000" d="M374.2507,-1081.2538C399.1788,-1053.5926 446.7169,-995.4767 465.4469,-936 504.8715,-810.8086 488.8151,-650.6041 479.8911,-586.4363"/>
<polygon fill="#000000" stroke="#000000" points="483.3192,-585.6866 478.426,-576.2894 476.3911,-586.687 483.3192,-585.6866"/>
</g>
<!-- configuration management -->
<g id="node4" class="node">
<title>configuration management</title>
<ellipse fill="none" stroke="#000000" cx="148.4469" cy="-738" rx="106.6812" ry="18"/>
<text text-anchor="middle" x="148.4469" y="-734.3" font-family="Times,serif" font-size="14.00" fill="#000000">configuration management</text>
</g>
<!-- filesystem&#45;&gt;configuration management -->
<g id="edge3" class="edge">
<title>filesystem&#45;&gt;configuration management</title>
<path fill="none" stroke="#000000" d="M145.7511,-899.7501C146.2758,-868.2686 147.3544,-803.5502 147.9765,-766.2249"/>
<polygon fill="#000000" stroke="#000000" points="151.4792,-766.0876 148.1464,-756.0306 144.4802,-765.9709 151.4792,-766.0876"/>
</g>
<!-- package manager&#45;&gt;configuration management -->
<g id="edge4" class="edge">
<title>package manager&#45;&gt;configuration management</title>
<path fill="none" stroke="#000000" d="M279.9141,-900.0828C253.8966,-868.0064 199.2841,-800.676 169.2827,-763.6879"/>
<polygon fill="#000000" stroke="#000000" points="171.9387,-761.4063 162.921,-755.8447 166.5022,-765.8159 171.9387,-761.4063"/>
</g>
<!-- database -->
<g id="node20" class="node">
<title>database</title>
<ellipse fill="none" stroke="#000000" cx="386.4469" cy="-198" rx="40.8928" ry="18"/>
<text text-anchor="middle" x="386.4469" y="-194.3" font-family="Times,serif" font-size="14.00" fill="#000000">database</text>
</g>
<!-- package manager&#45;&gt;database -->
<g id="edge22" class="edge">
<title>package manager&#45;&gt;database</title>
<path fill="none" stroke="#000000" d="M296.3195,-899.8798C301.9916,-845.3841 319.6866,-678.2255 337.4469,-540 352.4509,-423.2267 373.2528,-284.467 382.1413,-226.0845"/>
<polygon fill="#000000" stroke="#000000" points="385.6098,-226.5556 383.6582,-216.1421 378.6899,-225.4997 385.6098,-226.5556"/>
</g>
<!-- github -->
<g id="node7" class="node">
<title>github</title>
<ellipse fill="none" stroke="#000000" cx="397.4469" cy="-738" rx="33.2948" ry="18"/>
<text text-anchor="middle" x="397.4469" y="-734.3" font-family="Times,serif" font-size="14.00" fill="#000000">github</text>
</g>
<!-- git&#45;&gt;github -->
<g id="edge6" class="edge">
<title>git&#45;&gt;github</title>
<path fill="none" stroke="#000000" d="M420.8589,-900.0828C416.3347,-868.7612 406.955,-803.8252 401.5417,-766.3486"/>
<polygon fill="#000000" stroke="#000000" points="404.9568,-765.5087 400.0631,-756.1118 398.0287,-766.5095 404.9568,-765.5087"/>
</g>
<!-- foss -->
<g id="node8" class="node">
<title>foss</title>
<ellipse fill="none" stroke="#000000" cx="379.4469" cy="-558" rx="27" ry="18"/>
<text text-anchor="middle" x="379.4469" y="-554.3" font-family="Times,serif" font-size="14.00" fill="#000000">foss</text>
</g>
<!-- github&#45;&gt;foss -->
<g id="edge7" class="edge">
<title>github&#45;&gt;foss</title>
<path fill="none" stroke="#000000" d="M395.622,-719.7501C392.4738,-688.2686 386.002,-623.5502 382.2694,-586.2249"/>
<polygon fill="#000000" stroke="#000000" points="385.7278,-585.6327 381.25,-576.0306 378.7625,-586.3293 385.7278,-585.6327"/>
</g>
<!-- architecture -->
<g id="node10" class="node">
<title>architecture</title>
<ellipse fill="none" stroke="#000000" cx="1028.4469" cy="-738" rx="51.9908" ry="18"/>
<text text-anchor="middle" x="1028.4469" y="-734.3" font-family="Times,serif" font-size="14.00" fill="#000000">architecture</text>
</g>
<!-- c&#45;&gt;architecture -->
<g id="edge9" class="edge">
<title>c&#45;&gt;architecture</title>
<path fill="none" stroke="#000000" d="M753.7235,-905.6279C803.4762,-875.2703 932.0382,-796.8257 994.0241,-759.0038"/>
<polygon fill="#000000" stroke="#000000" points="995.9558,-761.9253 1002.6692,-753.7288 992.3097,-755.9498 995.9558,-761.9253"/>
</g>
<!-- cryptography -->
<g id="node19" class="node">
<title>cryptography</title>
<ellipse fill="none" stroke="#000000" cx="577.4469" cy="-378" rx="57.6901" ry="18"/>
<text text-anchor="middle" x="577.4469" y="-374.3" font-family="Times,serif" font-size="14.00" fill="#000000">cryptography</text>
</g>
<!-- c&#45;&gt;cryptography -->
<g id="edge20" class="edge">
<title>c&#45;&gt;cryptography</title>
<path fill="none" stroke="#000000" d="M715.06,-904.7278C682.374,-879.8828 615.0904,-822.7869 588.4469,-756 539.5939,-633.5408 560.6178,-470.5996 571.9507,-406.0465"/>
<polygon fill="#000000" stroke="#000000" points="575.3948,-406.6689 573.7396,-396.2041 568.5077,-405.417 575.3948,-406.6689"/>
</g>
<!-- languages -->
<g id="node27" class="node">
<title>languages</title>
<ellipse fill="none" stroke="#000000" cx="901.4469" cy="-738" rx="46.2923" ry="18"/>
<text text-anchor="middle" x="901.4469" y="-734.3" font-family="Times,serif" font-size="14.00" fill="#000000">languages</text>
</g>
<!-- c&#45;&gt;languages -->
<g id="edge31" class="edge">
<title>c&#45;&gt;languages</title>
<path fill="none" stroke="#000000" d="M747.7705,-902.6533C776.8842,-871.4601 843.1884,-800.4199 878.4306,-762.6604"/>
<polygon fill="#000000" stroke="#000000" points="881.1904,-764.8331 885.4549,-755.1344 876.073,-760.0568 881.1904,-764.8331"/>
</g>
<!-- networking -->
<g id="node11" class="node">
<title>networking</title>
<ellipse fill="none" stroke="#000000" cx="1003.4469" cy="-558" rx="50.8918" ry="18"/>
<text text-anchor="middle" x="1003.4469" y="-554.3" font-family="Times,serif" font-size="14.00" fill="#000000">networking</text>
</g>
<!-- architecture&#45;&gt;networking -->
<g id="edge41" class="edge">
<title>architecture&#45;&gt;networking</title>
<path fill="none" stroke="#000000" d="M1025.9122,-719.7501C1021.5398,-688.2686 1012.5511,-623.5502 1007.3671,-586.2249"/>
<polygon fill="#000000" stroke="#000000" points="1010.7937,-585.454 1005.9512,-576.0306 1003.8602,-586.4171 1010.7937,-585.454"/>
</g>
<!-- virtualization -->
<g id="node13" class="node">
<title>virtualization</title>
<ellipse fill="none" stroke="#000000" cx="865.4469" cy="-558" rx="57.6901" ry="18"/>
<text text-anchor="middle" x="865.4469" y="-554.3" font-family="Times,serif" font-size="14.00" fill="#000000">virtualization</text>
</g>
<!-- architecture&#45;&gt;virtualization -->
<g id="edge40" class="edge">
<title>architecture&#45;&gt;virtualization</title>
<path fill="none" stroke="#000000" d="M1012.8178,-720.7408C983.9266,-688.8364 922.0494,-620.5058 888.3937,-583.34"/>
<polygon fill="#000000" stroke="#000000" points="890.575,-580.5345 881.2683,-575.4714 885.3863,-585.2332 890.575,-580.5345"/>
</g>
<!-- server -->
<g id="node15" class="node">
<title>server</title>
<ellipse fill="none" stroke="#000000" cx="1001.4469" cy="-378" rx="32.4942" ry="18"/>
<text text-anchor="middle" x="1001.4469" y="-374.3" font-family="Times,serif" font-size="14.00" fill="#000000">server</text>
</g>
<!-- architecture&#45;&gt;server -->
<g id="edge14" class="edge">
<title>architecture&#45;&gt;server</title>
<path fill="none" stroke="#000000" d="M1036.9179,-719.9897C1052.2022,-685.2131 1081.6335,-606.3871 1068.4469,-540 1058.4519,-489.6803 1032.5712,-435.3908 1016.058,-404.1755"/>
<polygon fill="#000000" stroke="#000000" points="1019.0814,-402.4077 1011.2619,-395.2588 1012.9165,-405.7236 1019.0814,-402.4077"/>
</g>
<!-- embedded -->
<g id="node23" class="node">
<title>embedded</title>
<ellipse fill="none" stroke="#000000" cx="1189.4469" cy="-558" rx="47.3916" ry="18"/>
<text text-anchor="middle" x="1189.4469" y="-554.3" font-family="Times,serif" font-size="14.00" fill="#000000">embedded</text>
</g>
<!-- architecture&#45;&gt;embedded -->
<g id="edge26" class="edge">
<title>architecture&#45;&gt;embedded</title>
<path fill="none" stroke="#000000" d="M1043.8843,-720.7408C1072.4942,-688.7546 1133.8526,-620.1551 1167.0369,-583.0547"/>
<polygon fill="#000000" stroke="#000000" points="1169.9983,-584.9938 1174.0563,-575.2069 1164.7808,-580.3271 1169.9983,-584.9938"/>
</g>
<!-- compilers -->
<g id="node29" class="node">
<title>compilers</title>
<ellipse fill="none" stroke="#000000" cx="649.4469" cy="-558" rx="46.2923" ry="18"/>
<text text-anchor="middle" x="649.4469" y="-554.3" font-family="Times,serif" font-size="14.00" fill="#000000">compilers</text>
</g>
<!-- architecture&#45;&gt;compilers -->
<g id="edge33" class="edge">
<title>architecture&#45;&gt;compilers</title>
<path fill="none" stroke="#000000" d="M997.7528,-723.4223C929.1403,-690.8359 763.4629,-612.15 688.0225,-576.3208"/>
<polygon fill="#000000" stroke="#000000" points="689.3872,-573.0943 678.8526,-571.9658 686.3841,-579.4175 689.3872,-573.0943"/>
</g>
<!-- graphics -->
<g id="node33" class="node">
<title>graphics</title>
<ellipse fill="none" stroke="#000000" cx="1306.4469" cy="-558" rx="40.0939" ry="18"/>
<text text-anchor="middle" x="1306.4469" y="-554.3" font-family="Times,serif" font-size="14.00" fill="#000000">graphics</text>
</g>
<!-- architecture&#45;&gt;graphics -->
<g id="edge42" class="edge">
<title>architecture&#45;&gt;graphics</title>
<path fill="none" stroke="#000000" d="M1053.1176,-722.0262C1103.6984,-689.276 1219.0851,-614.5652 1274.9647,-578.3842"/>
<polygon fill="#000000" stroke="#000000" points="1276.9113,-581.2935 1283.4031,-572.9205 1273.1067,-575.4176 1276.9113,-581.2935"/>
</g>
<!-- cloud -->
<g id="node12" class="node">
<title>cloud</title>
<ellipse fill="none" stroke="#000000" cx="908.4469" cy="-378" rx="30.5947" ry="18"/>
<text text-anchor="middle" x="908.4469" y="-374.3" font-family="Times,serif" font-size="14.00" fill="#000000">cloud</text>
</g>
<!-- networking&#45;&gt;cloud -->
<g id="edge10" class="edge">
<title>networking&#45;&gt;cloud</title>
<path fill="none" stroke="#000000" d="M993.9907,-540.0828C977.1887,-508.2475 942.059,-441.686 922.4473,-404.5269"/>
<polygon fill="#000000" stroke="#000000" points="925.3486,-402.5255 917.5856,-395.3153 919.1579,-405.7928 925.3486,-402.5255"/>
</g>
<!-- networking&#45;&gt;server -->
<g id="edge15" class="edge">
<title>networking&#45;&gt;server</title>
<path fill="none" stroke="#000000" d="M1003.2442,-539.7501C1002.8944,-508.2686 1002.1753,-443.5502 1001.7606,-406.2249"/>
<polygon fill="#000000" stroke="#000000" points="1005.2583,-405.9911 1001.6473,-396.0306 998.2587,-406.0689 1005.2583,-405.9911"/>
</g>
<!-- internet of things -->
<g id="node24" class="node">
<title>internet of things</title>
<ellipse fill="none" stroke="#000000" cx="1134.4469" cy="-378" rx="71.4873" ry="18"/>
<text text-anchor="middle" x="1134.4469" y="-374.3" font-family="Times,serif" font-size="14.00" fill="#000000">internet of things</text>
</g>
<!-- networking&#45;&gt;internet of things -->
<g id="edge28" class="edge">
<title>networking&#45;&gt;internet of things</title>
<path fill="none" stroke="#000000" d="M1016.2463,-540.4131C1039.3721,-508.6372 1088.2274,-441.5078 1115.3277,-404.2707"/>
<polygon fill="#000000" stroke="#000000" points="1118.3471,-406.0699 1121.4016,-395.9249 1112.6872,-401.9508 1118.3471,-406.0699"/>
</g>
<!-- js -->
<g id="node32" class="node">
<title>js</title>
<ellipse fill="none" stroke="#000000" cx="819.4469" cy="-378" rx="27" ry="18"/>
<text text-anchor="middle" x="819.4469" y="-374.3" font-family="Times,serif" font-size="14.00" fill="#000000">js</text>
</g>
<!-- networking&#45;&gt;js -->
<g id="edge38" class="edge">
<title>networking&#45;&gt;js</title>
<path fill="none" stroke="#000000" d="M986.1367,-541.066C952.7284,-508.384 879.3784,-436.6286 842.1238,-400.1839"/>
<polygon fill="#000000" stroke="#000000" points="844.3452,-397.4608 834.7493,-392.9697 839.4502,-402.4646 844.3452,-397.4608"/>
</g>
<!-- virtualization&#45;&gt;cloud -->
<g id="edge11" class="edge">
<title>virtualization&#45;&gt;cloud</title>
<path fill="none" stroke="#000000" d="M869.8066,-539.7501C877.3272,-508.2686 892.7877,-443.5502 901.7043,-406.2249"/>
<polygon fill="#000000" stroke="#000000" points="905.2203,-406.5702 904.1396,-396.0306 898.4118,-404.9437 905.2203,-406.5702"/>
</g>
<!-- containers -->
<g id="node14" class="node">
<title>containers</title>
<ellipse fill="none" stroke="#000000" cx="716.4469" cy="-378" rx="46.5926" ry="18"/>
<text text-anchor="middle" x="716.4469" y="-374.3" font-family="Times,serif" font-size="14.00" fill="#000000">containers</text>
</g>
<!-- virtualization&#45;&gt;containers -->
<g id="edge12" class="edge">
<title>virtualization&#45;&gt;containers</title>
<path fill="none" stroke="#000000" d="M850.8889,-540.4131C824.3384,-508.3386 767.9705,-440.2432 737.331,-403.2291"/>
<polygon fill="#000000" stroke="#000000" points="739.9174,-400.8647 730.8447,-395.3933 734.5252,-405.3283 739.9174,-400.8647"/>
</g>
<!-- distributed -->
<g id="node16" class="node">
<title>distributed</title>
<ellipse fill="none" stroke="#000000" cx="1001.4469" cy="-198" rx="48.1917" ry="18"/>
<text text-anchor="middle" x="1001.4469" y="-194.3" font-family="Times,serif" font-size="14.00" fill="#000000">distributed</text>
</g>
<!-- server&#45;&gt;distributed -->
<g id="edge16" class="edge">
<title>server&#45;&gt;distributed</title>
<path fill="none" stroke="#000000" d="M1001.4469,-359.7501C1001.4469,-328.2686 1001.4469,-263.5502 1001.4469,-226.2249"/>
<polygon fill="#000000" stroke="#000000" points="1004.947,-226.0306 1001.4469,-216.0306 997.947,-226.0306 1004.947,-226.0306"/>
</g>
<!-- website -->
<g id="node17" class="node">
<title>website</title>
<ellipse fill="none" stroke="#000000" cx="577.4469" cy="-198" rx="37.8943" ry="18"/>
<text text-anchor="middle" x="577.4469" y="-194.3" font-family="Times,serif" font-size="14.00" fill="#000000">website</text>
</g>
<!-- server&#45;&gt;website -->
<g id="edge17" class="edge">
<title>server&#45;&gt;website</title>
<path fill="none" stroke="#000000" d="M975.5621,-367.0112C903.3686,-336.363 699.5606,-249.8407 614.9701,-213.9296"/>
<polygon fill="#000000" stroke="#000000" points="616.3081,-210.6954 605.7354,-210.0093 613.5726,-217.1388 616.3081,-210.6954"/>
</g>
<!-- web app -->
<g id="node21" class="node">
<title>web app</title>
<ellipse fill="none" stroke="#000000" cx="577.4469" cy="-18" rx="40.0939" ry="18"/>
<text text-anchor="middle" x="577.4469" y="-14.3" font-family="Times,serif" font-size="14.00" fill="#000000">web app</text>
</g>
<!-- website&#45;&gt;web app -->
<g id="edge24" class="edge">
<title>website&#45;&gt;web app</title>
<path fill="none" stroke="#000000" d="M577.4469,-179.7501C577.4469,-148.2686 577.4469,-83.5502 577.4469,-46.2249"/>
<polygon fill="#000000" stroke="#000000" points="580.947,-46.0306 577.4469,-36.0306 573.947,-46.0306 580.947,-46.0306"/>
</g>
<!-- html/css&#45;&gt;website -->
<g id="edge19" class="edge">
<title>html/css&#45;&gt;website</title>
<path fill="none" stroke="#000000" d="M476.5641,-539.9042C479.0936,-504.6525 486.5775,-424.5743 505.4469,-360 519.9201,-310.4706 546.3172,-256.3332 562.8124,-224.8667"/>
<polygon fill="#000000" stroke="#000000" points="565.9962,-226.3336 567.5896,-215.8593 559.8121,-223.0538 565.9962,-226.3336"/>
</g>
<!-- html/css&#45;&gt;js -->
<g id="edge37" class="edge">
<title>html/css&#45;&gt;js</title>
<path fill="none" stroke="#000000" d="M501.8689,-544.1746C564.5493,-511.3767 721.9745,-429.003 788.7428,-394.0661"/>
<polygon fill="#000000" stroke="#000000" points="790.6763,-397.0046 797.914,-389.2673 787.4309,-390.8024 790.6763,-397.0046"/>
</g>
<!-- cryptography&#45;&gt;website -->
<g id="edge21" class="edge">
<title>cryptography&#45;&gt;website</title>
<path fill="none" stroke="#000000" d="M577.4469,-359.7501C577.4469,-328.2686 577.4469,-263.5502 577.4469,-226.2249"/>
<polygon fill="#000000" stroke="#000000" points="580.947,-226.0306 577.4469,-216.0306 573.947,-226.0306 580.947,-226.0306"/>
</g>
<!-- database&#45;&gt;web app -->
<g id="edge23" class="edge">
<title>database&#45;&gt;web app</title>
<path fill="none" stroke="#000000" d="M404.0734,-181.3887C438.2721,-149.1595 513.6955,-78.0799 552.8208,-41.2079"/>
<polygon fill="#000000" stroke="#000000" points="555.2619,-43.7168 560.139,-34.3112 550.461,-38.6225 555.2619,-43.7168"/>
</g>
<!-- ui -->
<g id="node22" class="node">
<title>ui</title>
<ellipse fill="none" stroke="#000000" cx="745.4469" cy="-198" rx="27" ry="18"/>
<text text-anchor="middle" x="745.4469" y="-194.3" font-family="Times,serif" font-size="14.00" fill="#000000">ui</text>
</g>
<!-- ui&#45;&gt;web app -->
<g id="edge25" class="edge">
<title>ui&#45;&gt;web app</title>
<path fill="none" stroke="#000000" d="M731.1234,-182.6533C701.9356,-151.3808 635.3679,-80.0581 600.1949,-42.3728"/>
<polygon fill="#000000" stroke="#000000" points="602.5725,-39.7907 593.1906,-34.8682 597.4551,-44.5669 602.5725,-39.7907"/>
</g>
<!-- embedded&#45;&gt;internet of things -->
<g id="edge27" class="edge">
<title>embedded&#45;&gt;internet of things</title>
<path fill="none" stroke="#000000" d="M1183.9723,-540.0828C1174.3607,-508.6268 1154.3897,-443.2672 1142.962,-405.8676"/>
<polygon fill="#000000" stroke="#000000" points="1146.2506,-404.6526 1139.9811,-396.1118 1139.5561,-406.6981 1146.2506,-404.6526"/>
</g>
<!-- asics -->
<g id="node25" class="node">
<title>asics</title>
<ellipse fill="none" stroke="#000000" cx="1262.4469" cy="-378" rx="27.8951" ry="18"/>
<text text-anchor="middle" x="1262.4469" y="-374.3" font-family="Times,serif" font-size="14.00" fill="#000000">asics</text>
</g>
<!-- embedded&#45;&gt;asics -->
<g id="edge29" class="edge">
<title>embedded&#45;&gt;asics</title>
<path fill="none" stroke="#000000" d="M1196.7133,-540.0828C1209.5364,-508.4642 1236.2518,-442.5908 1251.3793,-405.29"/>
<polygon fill="#000000" stroke="#000000" points="1254.8027,-406.1615 1255.3176,-395.5792 1248.3159,-403.5307 1254.8027,-406.1615"/>
</g>
<!-- fpgas -->
<g id="node26" class="node">
<title>fpgas</title>
<ellipse fill="none" stroke="#000000" cx="1262.4469" cy="-198" rx="29.795" ry="18"/>
<text text-anchor="middle" x="1262.4469" y="-194.3" font-family="Times,serif" font-size="14.00" fill="#000000">fpgas</text>
</g>
<!-- asics&#45;&gt;fpgas -->
<g id="edge30" class="edge">
<title>asics&#45;&gt;fpgas</title>
<path fill="none" stroke="#000000" d="M1262.4469,-359.7501C1262.4469,-328.2686 1262.4469,-263.5502 1262.4469,-226.2249"/>
<polygon fill="#000000" stroke="#000000" points="1265.947,-226.0306 1262.4469,-216.0306 1258.947,-226.0306 1265.947,-226.0306"/>
</g>
<!-- ides -->
<g id="node28" class="node">
<title>ides</title>
<ellipse fill="none" stroke="#000000" cx="751.4469" cy="-558" rx="27" ry="18"/>
<text text-anchor="middle" x="751.4469" y="-554.3" font-family="Times,serif" font-size="14.00" fill="#000000">ides</text>
</g>
<!-- languages&#45;&gt;ides -->
<g id="edge32" class="edge">
<title>languages&#45;&gt;ides</title>
<path fill="none" stroke="#000000" d="M887.0643,-720.7408C860.0683,-688.3456 801.7759,-618.3947 771.1528,-581.647"/>
<polygon fill="#000000" stroke="#000000" points="773.7956,-579.3512 764.705,-573.9096 768.4181,-583.8325 773.7956,-579.3512"/>
</g>
<!-- languages&#45;&gt;compilers -->
<g id="edge34" class="edge">
<title>languages&#45;&gt;compilers</title>
<path fill="none" stroke="#000000" d="M879.0836,-722.0262C833.8775,-689.7361 731.5656,-616.6562 680.1513,-579.9317"/>
<polygon fill="#000000" stroke="#000000" points="681.9318,-576.9023 671.7601,-573.938 677.8631,-582.5985 681.9318,-576.9023"/>
</g>
<!-- semantics -->
<g id="node30" class="node">
<title>semantics</title>
<ellipse fill="none" stroke="#000000" cx="649.4469" cy="-738" rx="46.2923" ry="18"/>
<text text-anchor="middle" x="649.4469" y="-734.3" font-family="Times,serif" font-size="14.00" fill="#000000">semantics</text>
</g>
<!-- semantics&#45;&gt;compilers -->
<g id="edge35" class="edge">
<title>semantics&#45;&gt;compilers</title>
<path fill="none" stroke="#000000" d="M649.4469,-719.7501C649.4469,-688.2686 649.4469,-623.5502 649.4469,-586.2249"/>
<polygon fill="#000000" stroke="#000000" points="652.947,-586.0306 649.4469,-576.0306 645.947,-586.0306 652.947,-586.0306"/>
</g>
<!-- type theory -->
<g id="node31" class="node">
<title>type theory</title>
<ellipse fill="none" stroke="#000000" cx="775.4469" cy="-738" rx="50.8918" ry="18"/>
<text text-anchor="middle" x="775.4469" y="-734.3" font-family="Times,serif" font-size="14.00" fill="#000000">type theory</text>
</g>
<!-- type theory&#45;&gt;compilers -->
<g id="edge36" class="edge">
<title>type theory&#45;&gt;compilers</title>
<path fill="none" stroke="#000000" d="M763.1361,-720.4131C740.7783,-688.4734 693.4173,-620.8148 667.435,-583.6973"/>
<polygon fill="#000000" stroke="#000000" points="670.2242,-581.5785 661.6222,-575.3933 664.4896,-585.5927 670.2242,-581.5785"/>
</g>
<!-- js&#45;&gt;ui -->
<g id="edge39" class="edge">
<title>js&#45;&gt;ui</title>
<path fill="none" stroke="#000000" d="M812.2168,-360.4131C799.1968,-328.7429 771.7392,-261.9541 756.4004,-224.6434"/>
<polygon fill="#000000" stroke="#000000" points="759.637,-223.3114 752.5975,-215.3933 753.1628,-225.973 759.637,-223.3114"/>
</g>
<!-- linear algebra -->
<g id="node34" class="node">
<title>linear algebra</title>
<ellipse fill="none" stroke="#000000" cx="1306.4469" cy="-738" rx="59.2899" ry="18"/>
<text text-anchor="middle" x="1306.4469" y="-734.3" font-family="Times,serif" font-size="14.00" fill="#000000">linear algebra</text>
</g>
<!-- linear algebra&#45;&gt;graphics -->
<g id="edge43" class="edge">
<title>linear algebra&#45;&gt;graphics</title>
<path fill="none" stroke="#000000" d="M1306.4469,-719.7501C1306.4469,-688.2686 1306.4469,-623.5502 1306.4469,-586.2249"/>
<polygon fill="#000000" stroke="#000000" points="1309.947,-586.0306 1306.4469,-576.0306 1302.947,-586.0306 1309.947,-586.0306"/>
</g>
</g>
</svg>
